<?xml version="1.0" encoding="UTF-8"?>
<svg width="128pt" height="128pt" version="1.1" viewBox="0 0 128 128" xmlns="http://www.w3.org/2000/svg">
 <path d="m119.75 64.801c0 13.34-10.852 24.195-24.195 24.195-0.67969 0-1.3594-0.019532-1.9883-0.11328-2.1797-0.33984-3.6797-2.3867-3.3398-4.5664 0.33594-2.1797 2.3711-3.6602 4.5664-3.3398 0.24609 0.039063 0.50391 0.019532 0.76953 0.019532 8.9297 0 16.195-7.2656 16.195-16.195 0-8.9297-7.2656-16.195-16.195-16.195-1.2617 0-2.5117 0.14844-3.7109 0.45312-0.019531 0.003906-0.039062 0.003906-0.054687 0.011718-0.16016 0.039063-0.32031 0.050782-0.48047 0.070313-0.10547 0.011719-0.21094 0.035156-0.30859 0.035156-0.15625 0.003907-0.30469-0.015625-0.45312-0.023437-0.10938-0.011719-0.21875-0.011719-0.32422-0.023438-0.14453-0.023437-0.28125-0.070312-0.42578-0.10938-0.10547-0.03125-0.21484-0.050781-0.32031-0.089843-0.14453-0.054688-0.27344-0.125-0.41016-0.19531-0.089843-0.046875-0.18359-0.085937-0.27344-0.13672-0.12891-0.078125-0.25-0.17969-0.375-0.27344-0.078125-0.058594-0.16406-0.11328-0.23828-0.18359-0.10547-0.09375-0.19531-0.20312-0.28906-0.31641-0.078125-0.089844-0.16406-0.17578-0.23438-0.26953-0.074218-0.10156-0.13672-0.21484-0.19922-0.32422-0.070313-0.12109-0.14453-0.23438-0.20313-0.36328-0.011718-0.019532-0.023437-0.035157-0.03125-0.054688-3.8984-8.8164-12.637-14.516-22.254-14.516-9.7734 0-18.566 5.8008-22.426 14.789-0.003906 0.015624-0.015625 0.023437-0.019531 0.039062-0.12891 0.32422-0.30859 0.625-0.51562 0.90625-0.050781 0.066406-0.10156 0.125-0.14844 0.18359-0.21094 0.25-0.44141 0.47656-0.70312 0.66406-0.023437 0.019532-0.046875 0.039063-0.070312 0.058594-0.28516 0.19922-0.60547 0.34375-0.93359 0.46484-0.078125 0.03125-0.16016 0.050781-0.23828 0.074218-0.35156 0.10156-0.70312 0.17188-1.0859 0.17188-0.55469 0-1.0781-0.10938-1.5586-0.30859-1.5742-0.47656-3.1914-0.71484-4.8008-0.71484-8.9297 0-16.195 7.2656-16.195 16.195 0 8.2617 6.1406 15.156 14.309 16.102 0.10547 0.003906 0.21484 0.011719 0.32812 0.015625 0.066407 0 0.15625 0.003906 0.24609 0.011719h4.2344c2.2109 0 4 1.7891 4 4 0 2.2109-1.7891 4-4 4l-1.7539-0.015625c-0.39062 0.023437-0.77344 0.070312-1.1758 0.070312-0.53125 0-1.0547-0.019531-1.5664-0.070312h-0.58984c-0.35156 0-0.68359-0.058594-1.0117-0.14453-12.023-1.5742-21.023-11.77-21.023-23.98 0-13.34 10.855-24.195 24.195-24.195 1.4062 0 2.8086 0.13672 4.1992 0.375 5.6719-10.238 16.434-16.699 28.316-16.699 11.727 0 22.445 6.3789 28.145 16.469 0.80859-0.085937 1.6289-0.14844 2.4492-0.14844 13.328 0.011719 24.18 10.859 24.18 24.199zm-42.91 11.93-7.9883 8.4297-0.003906-28.434c0-2.2109-1.7891-4-4-4s-4 1.7891-4 4v28.434l-7.9883-8.4297c-1.5195-1.6016-4.0508-1.6719-5.6562-0.14844-1.6055 1.5195-1.6719 4.0508-0.14844 5.6562l14.895 15.711c0.011719 0.015625 0.023438 0.019531 0.039063 0.035156 0.12109 0.12109 0.25 0.22656 0.38672 0.32812 0.074218 0.058594 0.14062 0.12891 0.21875 0.17969 0.16406 0.11328 0.35156 0.21094 0.53516 0.29687 0.054688 0.023438 0.10156 0.058594 0.15625 0.085938 0.48438 0.20312 1.0156 0.32031 1.5703 0.32031 0.55469 0 1.0898-0.11328 1.5703-0.32031 0.074219-0.03125 0.14062-0.078125 0.21094-0.11328 0.16406-0.078125 0.32422-0.16016 0.47656-0.26562 0.09375-0.066406 0.17578-0.14453 0.26172-0.21484 0.11328-0.09375 0.23438-0.18359 0.33984-0.28906 0.015624-0.015626 0.03125-0.023438 0.046874-0.039063l14.895-15.711c1.5195-1.6055 1.4492-4.1367-0.14844-5.6562-1.6016-1.5156-4.1367-1.4492-5.6562 0.14844z" fill="#0f1729"/>
</svg>
