<?xml version="1.0" encoding="UTF-8"?>
<svg width="128pt" height="128pt" version="1.1" viewBox="0 0 128 128" xmlns="http://www.w3.org/2000/svg">
 <path d="m82.734 80.086-17.039-5.0156-5.0156-17.039c-0.26563-0.90625-1.0977-1.5312-2.043-1.5312-0.94922 0-1.7812 0.625-2.0469 1.5312l-5.0156 17.039-17.039 5.0156c-0.91016 0.26953-1.5312 1.1016-1.5312 2.0469 0 0.94531 0.62109 1.7812 1.5312 2.0469l17.039 5.0156 5.0156 17.039c0.26562 0.90625 1.0977 1.5312 2.0469 1.5312 0.94531 0 1.7773-0.625 2.043-1.5312l5.0156-17.039 17.039-5.0156c0.91016-0.26563 1.5312-1.1016 1.5312-2.0469 0-0.94531-0.62109-1.7773-1.5312-2.0469zm-19.359 5.3438c-0.69531 0.20312-1.2383 0.74609-1.4453 1.4414l-3.2969 11.203-3.2969-11.203c-0.20313-0.69531-0.74609-1.2383-1.4414-1.4414l-11.199-3.2969 11.199-3.2969c0.69531-0.20313 1.2383-0.74609 1.4414-1.4414l3.2969-11.203 3.2969 11.203c0.20703 0.69531 0.75 1.2383 1.4453 1.4414l11.199 3.2969zm-27.77-43.664 9.2422 2.7227 2.7227 9.2422h0.003907c0.26562 0.91016 1.0977 1.5312 2.043 1.5312 0.94922 0 1.7812-0.62109 2.0469-1.5312l2.7227-9.2422 9.2461-2.7227c0.90625-0.26953 1.5312-1.1016 1.5312-2.0469s-0.625-1.7812-1.5312-2.0469l-9.2461-2.7227-2.7227-9.2461v0.003906c-0.26562-0.91016-1.0977-1.5312-2.0469-1.5312-0.94531 0-1.7773 0.62109-2.043 1.5312l-2.7227 9.2461-9.2422 2.7227-0.003906-0.003906c-0.90625 0.26953-1.5312 1.1016-1.5312 2.0469s0.625 1.7773 1.5312 2.0469zm11.566-3.0469v-0.003906c0.69531-0.20312 1.2383-0.74609 1.4414-1.4414l1.0039-3.4062 1.0039 3.4062c0.20312 0.69531 0.74609 1.2383 1.4453 1.4414l3.4062 1.0039-3.4062 1.0039c-0.69922 0.20312-1.2422 0.75-1.4453 1.4453l-1.0039 3.4062-1.0039-3.4062c-0.20312-0.69531-0.74609-1.2422-1.4414-1.4453l-3.4062-1.0039zm53.902 13.445-9.3281-3.8047-3.8047-9.3242v-0.003906c-0.32812-0.80078-1.1094-1.3242-1.9766-1.3242-0.86328 0-1.6445 0.52344-1.9727 1.3242l-3.8047 9.3242-9.3242 3.8047v0.003906c-0.80469 0.32422-1.3281 1.1055-1.3281 1.9727 0 0.86719 0.52344 1.6484 1.3281 1.9766l9.3242 3.8047 3.8047 9.3281v-0.003906c0.32812 0.80469 1.1094 1.3281 1.9727 1.3281 0.86719 0 1.6484-0.52344 1.9766-1.3281l3.8047-9.3281 9.3281-3.8047v0.003906c0.80078-0.32812 1.3242-1.1094 1.3242-1.9766 0-0.86719-0.52344-1.6484-1.3242-1.9727zm-11.77 4.1406h-0.003907c-0.53125 0.21484-0.94922 0.63672-1.168 1.168l-2.168 5.3164-2.168-5.3164h0.003906c-0.21875-0.53125-0.63672-0.95312-1.168-1.168l-5.3125-2.168 5.3125-2.168c0.53125-0.21484 0.94922-0.63672 1.168-1.168l2.168-5.3125 2.168 5.3125h-0.003907c0.21875 0.53125 0.63672 0.95312 1.168 1.168l5.3164 2.168zm-13.969-29.402h-0.003907c0-1.8359 1.1055-3.4883 2.8008-4.1875 1.6914-0.70312 3.6445-0.31641 4.9375 0.98047 1.2969 1.2969 1.6875 3.2461 0.98438 4.9414-0.70313 1.6953-2.3555 2.7969-4.1875 2.7969-1.2031 0-2.3555-0.47656-3.207-1.3281-0.84766-0.84766-1.3281-2-1.3281-3.2031zm-44.199 40.801h-0.003907c-1.375 0-2.6133-0.82812-3.1406-2.1016-0.52734-1.2695-0.23438-2.7305 0.73828-3.7031 0.97266-0.97266 2.4336-1.2656 3.7031-0.73828 1.2695 0.52734 2.1016 1.7656 2.1016 3.1406 0 1.8789-1.5234 3.4023-3.4023 3.4023z" fill="#f3f4f5"/>
</svg>
