<?xml version="1.0" encoding="UTF-8"?>
<svg width="128pt" height="128pt" version="1.1" viewBox="0 0 128 128" xmlns="http://www.w3.org/2000/svg">
 <path d="m109.5 15.977c-0.96875-0.96875-2.2539-1.4961-3.625-1.4961-1.3359 0-2.5977 0.50391-3.5625 1.4219-2.1523 1.7461-31.938 25.977-44.238 38.273-10.52 10.52-19.051 21.852-21.586 25.316-2.7109 0.097656-8.8086 1.2656-14.898 8.9297-6.7266 8.457 1.5742 20.359 1.9297 20.863l2.5469 3.5859 1.5312-4.1328c1.2656-3.4219 3.7227-7.3672 5.1133-7.5273 4.8281-0.55859 8.1484-1.4141 10.855-4.1211 2.5352-2.5352 2.6523-6.0547 2.4492-8.125 3.4961-2.5625 14.793-11.074 25.285-21.566 12.297-12.297 36.531-42.086 38.277-44.234 1.9141-2.0234 1.8906-5.2188-0.078125-7.1875zm-73.016 68.168 4.8477 4.8477c0.15234 1.0664 0.30859 3.4375-1.0547 4.8008-1.5625 1.5625-3.6055 2.2695-8.1016 2.7891-3.0156 0.35156-5.375 3.3711-6.9492 6.1875-1.4609-3.293-2.7148-8.0469 0.003906-11.465 4.8672-6.1133 9.457-7.0469 11.254-7.1602zm69.703-64.176-0.16016 0.17969c-0.25781 0.31641-25.699 31.641-38.02 43.957-9.7891 9.7891-20.289 17.812-24.195 20.699l-3.1484-3.1484c2.8906-3.9102 10.918-14.414 20.699-24.195 12.32-12.312 43.645-37.754 43.961-38.012l0.17969-0.16016c0.24609-0.24609 0.46875-0.25781 0.70703-0.019531 0.1875 0.18359 0.17578 0.5-0.023437 0.69922z" fill="#f3f4f5"/>
</svg>
