<?xml version="1.0" encoding="UTF-8"?>
<svg width="128pt" height="128pt" version="1.1" viewBox="0 0 128 128" xmlns="http://www.w3.org/2000/svg">
 <path d="m26.879 72.961c0 7.1289 2.832 13.965 7.875 19.008 5.0391 5.0391 11.879 7.8711 19.008 7.8711h37.117c2.8281 0 5.1211-2.293 5.1211-5.1211s-2.293-5.1172-5.1211-5.1172h-37.117c-5.9453 0-11.441-3.1719-14.414-8.3203s-2.9727-11.492 0-16.641 8.4688-8.3203 14.414-8.3203h32.434l-9.1758 9.1758c-2.0039 2.0039-2.0039 5.2461 0 7.2461 2 2 5.2422 2 7.2422 0l13.543-13.555c2.1211-2.1211 3.3125-4.9961 3.3125-7.9922 0-3-1.1914-5.875-3.3125-7.9961l-13.543-13.543c-2-2-5.2422-2-7.2422 0-2.0039 2-2.0039 5.2461 0 7.2461l9.1758 9.1758h-32.434c-7.1289 0-13.969 2.832-19.008 7.875-5.043 5.0391-7.875 11.879-7.875 19.008" fill="#f3f4f5"/>
</svg>
