<?xml version="1.0" encoding="UTF-8"?>
<svg width="128pt" height="128pt" version="1.1" viewBox="0 0 128 128" xmlns="http://www.w3.org/2000/svg">
 <path d="m30.195 43.211c-2.1211 2.1211-3.3125 4.9961-3.3125 7.9961 0 2.9961 1.1914 5.875 3.3125 7.9922l13.543 13.543c2 2 5.2422 2 7.2422 0 2.0039-2 2.0039-5.2422 0-7.2461l-9.1758-9.1758h32.434c5.9453 0 11.441 3.1719 14.414 8.3203s2.9727 11.492 0 16.641-8.4688 8.3203-14.414 8.3203h-37.117c-2.8281 0-5.1211 2.2891-5.1211 5.1172s2.293 5.1211 5.1211 5.1211h37.117c9.6055 0 18.48-5.125 23.281-13.441 4.8008-8.3164 4.8008-18.562 0-26.879-4.8008-8.3164-13.676-13.441-23.281-13.441h-32.434l9.1758-9.1758c2.0039-2 2.0039-5.2461 0-7.2461-2-2-5.2422-2-7.2422 0z" fill="#f3f4f5"/>
</svg>
